<?xml version="1.0" standalone="no"?>
<!DOCTYPE svg PUBLIC "-//W3C//DTD SVG 20010904//EN"
 "http://www.w3.org/TR/2001/REC-SVG-20010904/DTD/svg10.dtd">
<svg version="1.0" xmlns="http://www.w3.org/2000/svg"
 width="600.000000pt" height="600.000000pt" viewBox="0 0 600.000000 600.000000"
 preserveAspectRatio="xMidYMid meet">
<metadata>
Created by potrace 1.14, written by Peter Selinger 2001-2017
</metadata>
<g transform="translate(0.000000,600.000000) scale(0.100000,-0.100000)"
fill="#000000" stroke="none">
<path d="M2300 4888 c-13 -29 -47 -102 -76 -163 -29 -60 -130 -276 -224 -480
-95 -203 -190 -408 -212 -455 -76 -161 -110 -235 -135 -290 -14 -30 -54 -115
-89 -189 -35 -73 -64 -135 -64 -136 0 -2 -27 -61 -61 -132 -34 -70 -74 -155
-89 -188 -15 -33 -58 -125 -95 -205 -37 -80 -100 -215 -140 -300 -73 -155
-125 -267 -172 -370 -14 -30 -54 -115 -89 -189 -35 -73 -64 -135 -64 -136 0
-2 -25 -56 -56 -121 -31 -66 -87 -186 -126 -269 -38 -82 -74 -156 -80 -163
-19 -23 6 -33 73 -30 l64 3 30 60 c17 34 48 99 69 145 21 47 90 195 154 330
107 228 207 443 272 585 15 33 55 118 89 188 33 71 61 130 61 132 0 1 29 63
64 136 35 74 75 159 89 189 13 30 44 96 67 145 48 103 69 147 210 450 56 121
115 247 130 280 15 33 51 110 80 170 29 61 65 137 80 170 15 33 51 109 79 169
28 59 51 109 51 111 0 1 28 63 63 136 35 74 81 171 102 217 21 45 42 82 46 82
8 0 24 -32 104 -205 18 -38 51 -110 74 -158 22 -49 41 -95 41 -103 0 -7 -13
-42 -29 -76 -55 -121 -232 -501 -416 -893 -62 -132 -122 -261 -133 -286 -12
-25 -47 -100 -78 -165 -31 -65 -67 -144 -81 -174 -14 -30 -122 -262 -241 -515
-118 -253 -227 -487 -242 -520 -15 -33 -46 -98 -68 -145 -166 -353 -202 -435
-198 -447 4 -9 26 -13 69 -13 l65 0 20 48 c11 26 61 133 110 237 90 191 127
271 187 400 18 39 58 123 89 189 31 65 56 119 56 121 0 1 29 63 64 136 35 74
75 159 89 190 14 30 73 158 132 285 59 126 120 256 135 289 15 33 49 105 75
160 26 55 76 163 112 240 78 168 116 248 178 380 74 158 119 255 150 323 15
34 32 61 37 60 7 -3 48 -87 140 -288 11 -25 34 -72 49 -104 16 -33 29 -67 29
-76 0 -9 -12 -41 -26 -71 -15 -30 -40 -83 -56 -119 -39 -83 -86 -184 -131
-281 -20 -42 -68 -145 -107 -229 -39 -84 -87 -187 -107 -229 -39 -83 -84 -180
-131 -281 -16 -36 -51 -110 -77 -165 -74 -158 -125 -265 -155 -330 -15 -33
-47 -100 -70 -150 -23 -49 -54 -115 -67 -145 -14 -30 -79 -169 -145 -309 -65
-140 -116 -261 -114 -268 4 -9 26 -13 69 -13 l63 0 24 53 c13 28 46 99 73 157
27 58 64 137 82 175 18 39 99 212 180 385 81 173 160 342 175 375 15 33 47
101 70 150 23 50 54 115 67 145 14 30 54 115 89 189 35 73 64 135 64 136 0 2
23 52 51 111 28 60 64 136 79 169 15 33 55 116 87 185 33 69 65 140 72 158 8
17 17 32 21 32 4 0 21 -30 38 -68 17 -37 65 -142 107 -232 43 -91 90 -192 105
-225 15 -33 47 -100 70 -150 68 -145 110 -236 140 -300 15 -33 51 -109 79
-169 28 -59 51 -109 51 -111 0 -1 26 -58 59 -126 32 -68 70 -149 84 -179 13
-30 44 -95 67 -145 23 -49 53 -115 67 -145 14 -30 45 -95 68 -145 23 -49 77
-165 120 -258 l78 -167 68 0 c38 0 69 4 69 9 0 11 -23 65 -80 186 -23 50 -54
115 -67 145 -14 30 -79 169 -144 308 -66 139 -119 254 -119 256 0 2 -29 64
-64 137 -35 74 -75 159 -89 189 -25 55 -58 126 -137 295 -23 50 -55 117 -70
150 -77 166 -223 481 -265 570 -26 55 -60 127 -75 160 -15 33 -39 84 -54 114
-14 30 -26 61 -26 68 0 13 18 53 107 243 27 58 62 133 78 168 16 34 32 62 35
62 4 0 52 -98 108 -217 55 -120 121 -261 145 -313 39 -83 121 -257 219 -470
17 -36 91 -195 166 -355 74 -159 147 -317 162 -350 15 -33 46 -98 68 -145 58
-125 245 -526 275 -590 13 -30 44 -95 67 -145 23 -49 55 -117 70 -150 31 -66
113 -242 137 -292 15 -33 16 -33 84 -33 38 0 69 4 69 9 0 5 -15 42 -34 83
-141 305 -232 500 -280 602 -31 65 -56 119 -56 121 0 1 -29 63 -64 136 -35 74
-75 159 -88 189 -14 30 -85 183 -158 340 -73 157 -145 312 -160 345 -15 33
-47 101 -70 150 -23 50 -54 115 -67 145 -14 30 -54 115 -89 189 -35 73 -64
135 -64 136 0 2 -22 50 -49 107 -27 56 -60 128 -74 158 -25 54 -55 120 -137
295 -111 238 -109 230 -90 263 10 17 105 218 170 360 18 39 36 72 40 72 4 0
56 -105 115 -232 60 -128 129 -276 153 -328 24 -52 60 -129 79 -170 19 -41 48
-102 63 -135 15 -33 75 -161 133 -285 58 -124 122 -261 142 -305 70 -150 93
-200 135 -290 23 -49 55 -117 70 -150 131 -283 227 -489 274 -589 31 -65 56
-119 56 -121 0 -1 29 -63 64 -136 35 -74 75 -159 88 -189 24 -52 187 -404 258
-555 18 -38 48 -103 66 -142 l33 -73 76 0 c72 0 86 5 66 25 -8 9 -43 82 -181
380 -15 33 -47 101 -70 150 -71 151 -111 237 -140 300 -15 33 -60 130 -100
215 -40 85 -85 182 -100 215 -15 33 -47 101 -70 150 -23 50 -55 117 -70 150
-15 33 -47 101 -70 150 -23 50 -55 117 -70 150 -76 164 -223 481 -265 570 -26
55 -57 123 -70 150 -12 28 -41 88 -63 135 -22 47 -115 247 -207 445 -92 198
-185 398 -207 445 -22 47 -56 120 -75 163 l-36 77 -77 0 -76 0 -29 -62 c-16
-35 -54 -117 -85 -183 -31 -66 -67 -144 -80 -172 -13 -29 -26 -53 -30 -53 -3
0 -17 24 -29 53 -13 28 -61 134 -108 235 l-86 182 -76 0 -76 0 -69 -148 c-38
-81 -87 -186 -109 -234 -22 -49 -43 -88 -46 -88 -3 0 -54 105 -113 233 l-108
232 -78 3 -78 3 -24 -53z m729 -160 c20 -46 56 -124 140 -302 28 -59 51 -114
51 -121 0 -17 -18 -59 -88 -207 -32 -68 -73 -156 -92 -195 -18 -40 -36 -73
-39 -73 -4 0 -55 106 -115 235 -105 227 -108 235 -95 267 7 18 40 92 74 163
34 72 76 163 95 203 18 39 37 72 42 72 5 0 17 -19 27 -42z"/>
</g>
</svg>
